<svg width="1000" height="320" viewBox="0 0 1000 320" xmlns="http://www.w3.org/2000/svg">
  <defs>
    <linearGradient id="bg" x1="0%" y1="0%" x2="100%" y2="100%">
      <stop offset="0%" stop-color="#0d130d"/>
      <stop offset="100%" stop-color="#16241a"/>
    </linearGradient>
    <radialGradient id="glow" cx="85%" cy="30%" r="60%">
      <stop offset="0%" stop-color="#9ee62c" stop-opacity="0.18"/>
      <stop offset="100%" stop-color="#9ee62c" stop-opacity="0"/>
    </radialGradient>
    <pattern id="dots" width="28" height="28" patternUnits="userSpaceOnUse">
      <circle cx="1.5" cy="1.5" r="1.2" fill="#ffffff" fill-opacity="0.05"/>
    </pattern>
  </defs>

  <!-- premium background -->
  <rect width="1000" height="320" fill="url(#bg)"/>
  <rect width="1000" height="320" fill="url(#dots)"/>
  <rect width="1000" height="320" fill="url(#glow)"/>
  <polygon points="760,0 1000,0 1000,320 880,320" fill="#ffffff" fill-opacity="0.03"/>
  <line x1="760" y1="0" x2="880" y2="320" stroke="#9ee62c" stroke-opacity="0.3" stroke-width="2"/>

  <!-- gothic title (exact glyph-path artwork, font-independent) -->
  <g transform="translate(219.2138671875, 110)" fill="#f5f7f4">
    <path d="M1.1201171875 -4.84375Q0.7265625 -5.267578125 1.1806640625 -5.7822265625Q4.4501953125 -9.08203125 6.97802734375 -10.2021484375Q9.505859375 -11.322265625 12.9267578125 -7.4775390625Q15.015625 -5.20703125 16.57470703125 -4.5107421875Q18.1337890625 -3.814453125 19.6474609375 -5.2978515625Q21.43359375 -7.083984375 19.66259765625 -9.7783203125Q17.8916015625 -12.47265625 13.078125 -18.4970703125Q7.5986328125 -25.369140625 7.58349609375 -29.62255859375Q7.568359375 -33.8759765625 14.41015625 -39.5673828125Q24.6123046875 -48.013671875 28.880859375 -41.837890625Q29.8798828125 -40.384765625 31.28759765625 -39.537109375Q32.6953125 -38.689453125 33.30078125 -39.0830078125Q33.966796875 -39.5673828125 34.37548828125 -39.12841796875Q34.7841796875 -38.689453125 34.1484375 -38.0537109375Q31.1513671875 -35.3291015625 28.62353515625 -34.58740234375Q26.095703125 -33.845703125 23.189453125 -37.357421875Q21.1611328125 -39.8095703125 19.3447265625 -40.18798828125Q17.5283203125 -40.56640625 15.2578125 -38.5078125Q12.5634765625 -36.0859375 13.69873046875 -32.6044921875Q14.833984375 -29.123046875 19.556640625 -23.5830078125Q19.859375 -23.25 20.22265625 -23.4921875L33.0283203125 -31.8779296875Q33.421875 -32.1201171875 33.61865234375 -32.029296875Q33.8154296875 -31.9384765625 33.8759765625 -31.666015625Q33.966796875 -30.7880859375 35.96484375 -29.123046875Q39.234375 -26.337890625 41.73193359375 -22.3115234375Q44.2294921875 -18.28515625 43.95703125 -13.017578125Q43.5029296875 -5.20703125 36.873046875 0.86279296875Q30.2431640625 6.9326171875 22.0390625 8.294921875Q21.1005859375 8.4765625 21.009765625 7.8408203125Q20.9189453125 7.205078125 21.736328125 7.0234375Q32.876953125 4.298828125 35.85888671875 -4.73779296875Q38.8408203125 -13.7744140625 31.908203125 -21.6455078125Q29.849609375 -23.916015625 27.73046875 -24.41552734375Q25.611328125 -24.9150390625 22.341796875 -22.826171875L21.373046875 -22.2509765625Q20.9189453125 -21.9482421875 21.251953125 -21.5244140625Q24.9150390625 -16.8017578125 25.3994140625 -13.03271484375Q25.8837890625 -9.263671875 21.0400390625 -4.6923828125Q16.1357421875 -0.060546875 13.6533203125 0.60546875Q11.1708984375 1.271484375 7.4775390625 -2.5732421875Q6.5390625 -3.51171875 5.0859375 -4.72265625Q3.6328125 -5.93359375 2.0888671875 -4.8134765625Q1.5439453125 -4.4501953125 1.1201171875 -4.84375Z M50.49609375 -7.1142578125 50.2841796875 -23.7041015625Q50.2841796875 -24.279296875 50.1025390625 -24.642578125Q49.3759765625 -25.8232421875 48.861328125 -25.2177734375L47.650390625 -23.9765625Q47.166015625 -23.431640625 46.72705078125 -23.85546875Q46.2880859375 -24.279296875 46.86328125 -25.0361328125Q48.1953125 -26.701171875 49.2548828125 -28.3662109375Q50.314453125 -30.03125 51.4345703125 -31.666015625Q51.9189453125 -32.2412109375 52.5546875 -31.6357421875Q53.826171875 -30.091796875 55.037109375 -28.92626953125Q56.248046875 -27.7607421875 58.48828125 -26.458984375Q59.1240234375 -26.216796875 59.04833984375 -25.8837890625Q58.97265625 -25.55078125 58.6396484375 -25.5205078125Q57.8525390625 -25.2177734375 57.2470703125 -24.47607421875Q56.6416015625 -23.734375 56.6416015625 -22.0087890625V-9.203125Q56.6416015625 -6.115234375 57.7919921875 -5.4189453125Q59.1240234375 -4.6318359375 59.9716796875 -6.0849609375Q60.2744140625 -6.66015625 60.71337890625 -6.34228515625Q61.15234375 -6.0244140625 60.6982421875 -5.2978515625Q59.7900390625 -3.875 59.0029296875 -2.43701171875Q58.2158203125 -0.9990234375 57.3984375 0.423828125Q56.8232421875 1.271484375 55.9755859375 0.787109375Q53.2509765625 -0.5146484375 51.87353515625 -2.3916015625Q50.49609375 -4.2685546875 50.49609375 -7.1142578125ZM54.8857421875 -43.048828125Q58.24609375 -43.048828125 57.943359375 -39.8095703125Q57.76171875 -38.1748046875 55.89990234375 -36.52490234375Q54.0380859375 -34.875 52.9482421875 -34.9052734375Q51.8583984375 -34.9052734375 51.283203125 -36.630859375Q50.7080078125 -38.3564453125 50.8291015625 -39.8095703125Q50.919921875 -41.2021484375 52.17626953125 -42.12548828125Q53.4326171875 -43.048828125 54.8857421875 -43.048828125Z M65.2392578125 -4.8134765625Q67.6005859375 -6.3271484375 69.205078125 -8.8095703125Q69.689453125 -9.5361328125 70.0830078125 -8.8095703125Q71.505859375 -6.115234375 74.048828125 -4.8134765625Q74.896484375 -4.3896484375 74.048828125 -3.9658203125Q71.384765625 -2.6640625 70.0830078125 0.0Q69.62890625 0.8779296875 69.205078125 0.0Q67.9033203125 -2.421875 65.2392578125 -3.9658203125Q64.5126953125 -4.3291015625 65.2392578125 -4.8134765625ZM64.724609375 -39.537109375Q67.3583984375 -41.2021484375 69.14453125 -43.9873046875Q69.6591796875 -44.7744140625 70.11328125 -43.9873046875Q71.6875 -40.9599609375 74.533203125 -39.537109375Q75.4716796875 -39.052734375 74.533203125 -38.568359375Q71.56640625 -32.7861328125 70.11328125 -15.3486328125Q69.5986328125 -14.3798828125 69.14453125 -15.3486328125Q67.69140625 -32.513671875 64.724609375 -38.568359375Q63.9072265625 -38.9921875 64.724609375 -39.537109375Z M118.4599609375 -20.646484375Q118.732421875 -20.041015625 118.06640625 -19.677734375Q111.345703125 -16.1357421875 105.23046875 -19.42041015625Q99.115234375 -22.705078125 98.67626953125 -29.0625Q98.2373046875 -35.419921875 102.33935546875 -40.36962890625Q106.44140625 -45.3193359375 113.7978515625 -45.5009765625Q116.7041015625 -45.5615234375 119.59521484375 -44.33544921875Q122.486328125 -43.109375 123.7578125 -42.01953125Q126.845703125 -39.2646484375 129.04052734375 -37.64501953125Q131.2353515625 -36.025390625 133.56640625 -37.17578125Q134.3232421875 -37.599609375 134.6865234375 -37.03955078125Q135.0498046875 -36.4794921875 133.9296875 -35.7529296875Q127.2998046875 -31.5146484375 126.845703125 -28.275390625Q126.3916015625 -25.0361328125 131.38671875 -17.498046875Q136.048828125 -10.4443359375 134.67138671875 -5.37353515625Q133.2939453125 -0.302734375 128.359375 3.26953125Q123.6064453125 6.6904296875 117.93017578125 7.25048828125Q112.25390625 7.810546875 107.2587890625 3.3603515625Q104.8369140625 1.1806640625 102.7783203125 -0.62060546875Q100.7197265625 -2.421875 97.72265625 -0.5146484375Q96.935546875 0.060546875 96.4814453125 -0.3935546875Q96.02734375 -0.84765625 96.572265625 -1.4228515625Q105.6845703125 -10.6865234375 114.373046875 -1.08984375Q118.369140625 3.26953125 121.578125 3.7841796875Q124.787109375 4.298828125 127.1484375 2.1796875Q129.4189453125 0.0302734375 128.9951171875 -3.1787109375Q128.5712890625 -6.3876953125 125.029296875 -11.8369140625Q120.064453125 -19.3447265625 120.23095703125 -23.2802734375Q120.3974609375 -27.2158203125 126.119140625 -31.84765625Q126.482421875 -32.150390625 126.3916015625 -32.453125Q126.30078125 -32.755859375 125.81640625 -32.7255859375Q122.0927734375 -32.755859375 118.77783203125 -35.9951171875Q115.462890625 -39.234375 110.6494140625 -39.3251953125Q106.19921875 -39.052734375 103.837890625 -36.28271484375Q101.4765625 -33.5126953125 101.9609375 -28.2451171875Q102.4453125 -22.9775390625 107.39501953125 -20.78271484375Q112.3447265625 -18.587890625 117.4306640625 -20.828125Q118.1572265625 -21.1611328125 118.4599609375 -20.646484375Z M139.2880859375 -39.4765625Q141.6494140625 -40.990234375 143.25390625 -43.47265625Q143.73828125 -44.19921875 144.1318359375 -43.47265625Q145.5546875 -40.7783203125 148.09765625 -39.4765625Q148.33984375 -39.35546875 148.33984375 -39.052734375Q148.33984375 -36.509765625 146.5537109375 -33.0888671875Q144.767578125 -29.66796875 143.1025390625 -27.4580078125Q142.830078125 -27.1552734375 142.4970703125 -27.306640625Q142.04296875 -27.5791015625 142.224609375 -27.8818359375Q144.0712890625 -30.7275390625 143.72314453125 -33.67919921875Q143.375 -36.630859375 139.2880859375 -38.62890625Q138.470703125 -38.931640625 139.2880859375 -39.4765625Z M162.1748046875 -23.794921875 162.14453125 -10.958984375Q162.1142578125 -6.0244140625 163.9609375 -5.3583984375Q164.1728515625 -5.1767578125 164.1728515625 -4.9345703125Q164.1728515625 -4.6923828125 163.9609375 -4.541015625Q161.296875 -2.5732421875 159.541015625 0.8779296875Q159.359375 1.150390625 159.07177734375 1.150390625Q158.7841796875 1.150390625 158.6328125 0.8779296875Q156.876953125 -2.54296875 154.03125 -4.5107421875Q153.849609375 -4.6923828125 153.849609375 -4.9345703125Q153.849609375 -5.1767578125 154.0615234375 -5.3583984375Q156.08984375 -6.0244140625 156.029296875 -10.958984375V-21.6455078125Q156.029296875 -24.7333984375 154.87890625 -25.4296875Q153.546875 -26.3076171875 152.69921875 -24.7939453125Q152.3662109375 -24.158203125 151.92724609375 -24.44580078125Q151.48828125 -24.7333984375 151.97265625 -25.55078125Q152.8505859375 -26.943359375 153.65283203125 -28.396484375Q154.455078125 -29.849609375 155.302734375 -31.302734375Q155.787109375 -32.1806640625 156.6650390625 -31.666015625L156.6953125 -31.6357421875Q161.0546875 -29.486328125 161.962890625 -26.3076171875Q162.0537109375 -26.0048828125 162.2958984375 -25.974609375Q162.5380859375 -25.8837890625 162.7802734375 -26.03515625Q164.263671875 -27.306640625 165.91357421875 -28.77490234375Q167.5634765625 -30.2431640625 168.19921875 -31.302734375Q168.68359375 -32.150390625 169.53125 -31.666015625Q173.890625 -29.5166015625 174.8291015625 -26.4287109375Q174.9501953125 -26.0048828125 175.1923828125 -26.0048828125Q175.4345703125 -26.0048828125 175.6162109375 -26.1865234375Q177.2509765625 -27.5185546875 178.84033203125 -28.95654296875Q180.4296875 -30.39453125 181.0654296875 -31.666015625Q181.3984375 -32.453125 182.1552734375 -31.6357421875Q183.9716796875 -29.728515625 185.2734375 -28.6083984375Q186.5751953125 -27.48828125 189.6630859375 -26.943359375Q190.1171875 -26.8525390625 190.1474609375 -26.5498046875Q190.1474609375 -26.03515625 189.814453125 -26.0048828125Q189.02734375 -25.7021484375 188.421875 -24.96044921875Q187.81640625 -24.21875 187.81640625 -22.4931640625V-9.32421875Q187.81640625 -6.236328125 188.966796875 -5.5400390625Q190.298828125 -4.7529296875 191.146484375 -6.2060546875Q191.44921875 -6.78125 191.88818359375 -6.46337890625Q192.3271484375 -6.1455078125 191.9033203125 -5.4189453125Q190.9951171875 -3.99609375 190.177734375 -2.55810546875Q189.3603515625 -1.1201171875 188.54296875 0.302734375Q187.998046875 1.150390625 187.1806640625 0.6962890625Q184.42578125 -0.6357421875 183.04833984375 -2.5732421875Q181.6708984375 -4.5107421875 181.6708984375 -7.205078125L181.701171875 -23.068359375Q181.701171875 -23.9765625 181.216796875 -24.3095703125L178.673828125 -26.4287109375Q178.310546875 -26.6708984375 177.947265625 -26.458984375Q175.9794921875 -24.9453125 175.525390625 -24.56689453125Q175.0712890625 -24.1884765625 175.0712890625 -23.734375L175.041015625 -10.958984375Q175.041015625 -5.994140625 176.8876953125 -5.3583984375Q177.099609375 -5.146484375 177.099609375 -4.94970703125Q177.099609375 -4.7529296875 176.8876953125 -4.541015625Q174.2236328125 -2.6337890625 172.4375 0.8779296875Q172.255859375 1.150390625 171.953125 1.150390625Q171.650390625 1.150390625 171.5595703125 0.8779296875Q169.833984375 -2.482421875 166.9580078125 -4.5107421875Q166.74609375 -4.662109375 166.74609375 -4.904296875Q166.74609375 -5.146484375 166.9580078125 -5.3583984375Q169.107421875 -6.0244140625 168.9560546875 -10.958984375L168.92578125 -21.6455078125Q168.92578125 -23.8857421875 167.775390625 -25.4296875Q166.3525390625 -27.306640625 164.8994140625 -26.15625L162.3564453125 -24.21875L162.2353515625 -24.037109375Z M229.2001953125 -17.013671875Q229.2607421875 -18.708984375 228.39794921875 -19.11767578125Q227.53515625 -19.5263671875 224.75 -18.890625Q220.451171875 -17.8310546875 217.060546875 -20.78271484375Q213.669921875 -23.734375 213.669921875 -29.546875Q213.7001953125 -35.6923828125 217.49951171875 -39.70361328125Q221.298828125 -43.71484375 227.8681640625 -43.7451171875Q231.107421875 -43.7451171875 234.75537109375 -41.7470703125Q238.4033203125 -39.7490234375 240.9462890625 -35.9345703125Q241.09765625 -35.72265625 241.400390625 -35.72265625Q241.7333984375 -35.7529296875 241.82421875 -36.025390625Q243.0048828125 -38.810546875 245.396484375 -41.15673828125Q247.7880859375 -43.5029296875 250.845703125 -43.5029296875Q255.689453125 -43.5029296875 257.73291015625 -41.232421875Q259.7763671875 -38.9619140625 261.078125 -33.845703125Q261.8046875 -30.3037109375 263.8935546875 -30.0615234375Q264.529296875 -30.03125 264.57470703125 -29.546875Q264.6201171875 -29.0625 263.86328125 -28.7900390625Q258.0205078125 -26.7919921875 255.87109375 -22.40234375Q253.7216796875 -18.0126953125 256.173828125 -11.201171875Q257.2939453125 -8.11328125 259.30712890625 -6.85693359375Q261.3203125 -5.6005859375 263.681640625 -7.0537109375Q264.5595703125 -7.5986328125 264.9833984375 -7.083984375Q265.4072265625 -6.5693359375 264.8017578125 -6.0244140625Q262.8037109375 -4.3896484375 260.79052734375 -2.7548828125Q258.77734375 -1.1201171875 256.779296875 0.5146484375Q256.4765625 0.7568359375 256.1435546875 0.5146484375Q249.2109375 -4.6015625 248.16650390625 -10.958984375Q247.1220703125 -17.31640625 256.3251953125 -26.0048828125Q256.59765625 -26.2470703125 256.5673828125 -26.44384765625Q256.537109375 -26.640625 256.294921875 -26.7919921875Q254.1455078125 -28.1240234375 252.9951171875 -34.1181640625Q252.3896484375 -37.0849609375 251.22412109375 -38.09912109375Q250.05859375 -39.11328125 247.818359375 -39.11328125Q246.001953125 -39.11328125 244.59423828125 -37.5390625Q243.1865234375 -35.96484375 242.4296875 -33.6943359375Q242.369140625 -33.4521484375 242.4599609375 -33.30078125Q244.24609375 -29.4560546875 244.427734375 -24.9755859375Q244.609375 -19.5869140625 242.4599609375 -14.39501953125Q240.310546875 -9.203125 236.6171875 -4.9345703125Q232.5908203125 -0.181640625 229.09423828125 0.544921875Q225.59765625 1.271484375 222.69140625 -2.9970703125Q220.1484375 -6.8115234375 217.5146484375 -3.935546875Q216.8486328125 -3.2998046875 216.3642578125 -3.85986328125Q215.8798828125 -4.419921875 216.515625 -5.0859375Q224.7802734375 -13.501953125 229.5029296875 -7.2958984375Q230.259765625 -6.2666015625 230.94091796875 -5.388671875Q231.6220703125 -4.5107421875 232.984375 -4.6015625Q234.740234375 -4.6318359375 236.677734375 -8.416015625Q238.615234375 -12.2001953125 238.615234375 -17.9521484375Q238.5546875 -25.490234375 234.6796875 -31.16650390625Q230.8046875 -36.8427734375 225.8095703125 -37.357421875Q220.814453125 -37.90234375 217.9384765625 -35.52587890625Q215.0625 -33.1494140625 215.1533203125 -29.849609375Q215.244140625 -26.51953125 216.92431640625 -24.521484375Q218.6044921875 -22.5234375 223.1455078125 -23.7041015625Q231.89453125 -25.9443359375 230.744140625 -17.255859375Q230.5625 -16.1357421875 229.8662109375 -16.1962890625Q229.169921875 -16.2568359375 229.2001953125 -17.013671875Z M282.9658203125 -4.2685546875Q281.421875 -3.087890625 279.5751953125 -1.68017578125Q277.728515625 -0.2724609375 276.154296875 0.908203125Q275.609375 1.33203125 275.29150390625 1.271484375Q274.9736328125 1.2109375 275.0341796875 0.7265625Q275.0341796875 0.0908203125 273.1572265625 -1.6953125Q268.22265625 -6.3271484375 268.404296875 -13.744140625Q268.5859375 -20.1015625 274.3076171875 -24.4912109375Q276.0634765625 -25.8232421875 277.59228515625 -27.306640625Q279.12109375 -28.7900390625 280.3017578125 -30.9091796875Q280.7861328125 -31.84765625 281.6337890625 -30.9697265625Q286.2353515625 -25.7626953125 290.8369140625 -24.82421875Q292.2900390625 -24.5517578125 291.1396484375 -23.673828125Q289.716796875 -22.64453125 289.595703125 -21.130859375V-21.0703125L289.6865234375 -7.2353515625Q289.6865234375 -5.8427734375 290.70068359375 -5.328125Q291.71484375 -4.8134765625 292.8955078125 -6.115234375Q293.349609375 -6.6298828125 293.75830078125 -6.37255859375Q294.1669921875 -6.115234375 293.7734375 -5.44921875Q292.68359375 -3.814453125 291.66943359375 -2.240234375Q290.6552734375 -0.666015625 289.958984375 1.029296875L289.9287109375 1.0595703125Q289.5048828125 1.755859375 288.8994140625 1.0595703125Q288.56640625 0.6962890625 288.1123046875 0.5751953125Q284.6611328125 -0.181640625 283.7529296875 -3.99609375Q283.6923828125 -4.177734375 283.4501953125 -4.359375Q283.177734375 -4.3896484375 282.9658203125 -4.2685546875ZM283.298828125 -22.099609375Q281.421875 -22.6142578125 278.9091796875 -25.005859375Q277.6982421875 -26.458984375 276.9716796875 -25.2783203125Q273.7626953125 -20.4951171875 274.458984375 -14.712890625Q275.427734375 -6.4482421875 280.271484375 -4.5107421875Q280.3017578125 -4.5107421875 280.33203125 -4.48046875Q281.5732421875 -4.0869140625 283.3291015625 -5.9638671875Q283.4501953125 -6.1455078125 283.4501953125 -6.296875Q283.419921875 -6.7509765625 283.419921875 -7.7197265625L283.6923828125 -21.615234375Q283.6923828125 -21.978515625 283.298828125 -22.099609375Z M300.3427734375 -7.1142578125 300.130859375 -23.7041015625Q300.130859375 -24.279296875 299.94921875 -24.642578125Q299.22265625 -25.8232421875 298.7080078125 -25.2177734375L297.4970703125 -23.9765625Q297.0126953125 -23.431640625 296.57373046875 -23.85546875Q296.134765625 -24.279296875 296.7099609375 -25.0361328125Q298.0419921875 -26.701171875 299.1015625 -28.3662109375Q300.1611328125 -30.03125 301.28125 -31.666015625Q301.765625 -32.2412109375 302.4013671875 -31.6357421875Q303.6728515625 -30.091796875 304.8837890625 -28.92626953125Q306.0947265625 -27.7607421875 308.3349609375 -26.458984375Q308.970703125 -26.216796875 308.89501953125 -25.8837890625Q308.8193359375 -25.55078125 308.486328125 -25.5205078125Q307.69921875 -25.2177734375 307.09375 -24.47607421875Q306.48828125 -23.734375 306.48828125 -22.0087890625V-9.203125Q306.48828125 -6.115234375 307.638671875 -5.4189453125Q308.970703125 -4.6318359375 309.818359375 -6.0849609375Q310.12109375 -6.66015625 310.56005859375 -6.34228515625Q310.9990234375 -6.0244140625 310.544921875 -5.2978515625Q309.63671875 -3.875 308.849609375 -2.43701171875Q308.0625 -0.9990234375 307.2451171875 0.423828125Q306.669921875 1.271484375 305.822265625 0.787109375Q303.09765625 -0.5146484375 301.72021484375 -2.3916015625Q300.3427734375 -4.2685546875 300.3427734375 -7.1142578125ZM304.732421875 -43.048828125Q308.0927734375 -43.048828125 307.7900390625 -39.8095703125Q307.6083984375 -38.1748046875 305.74658203125 -36.52490234375Q303.884765625 -34.875 302.794921875 -34.9052734375Q301.705078125 -34.9052734375 301.1298828125 -36.630859375Q300.5546875 -38.3564453125 300.67578125 -39.8095703125Q300.7666015625 -41.2021484375 302.02294921875 -42.12548828125Q303.279296875 -43.048828125 304.732421875 -43.048828125Z M324.349609375 -10.9287109375Q324.3193359375 -6.0546875 326.166015625 -5.2978515625Q326.3779296875 -5.146484375 326.3779296875 -4.88916015625Q326.3779296875 -4.6318359375 326.166015625 -4.5107421875Q323.44140625 -2.4521484375 321.74609375 0.96875Q321.564453125 1.2109375 321.2919921875 1.2109375Q321.01953125 1.2109375 320.837890625 0.96875Q319.142578125 -2.4521484375 316.236328125 -4.48046875Q316.0546875 -4.6015625 316.0546875 -4.8740234375Q316.0546875 -5.146484375 316.2666015625 -5.2978515625Q318.234375 -6.0546875 318.234375 -10.9287109375V-20.9794921875Q318.234375 -24.0673828125 317.083984375 -24.763671875Q315.751953125 -25.6416015625 314.904296875 -24.1279296875Q314.5712890625 -23.4921875 314.1474609375 -23.8251953125Q313.7236328125 -24.158203125 314.177734375 -24.884765625Q315.0556640625 -26.27734375 315.85791015625 -27.73046875Q316.66015625 -29.18359375 317.5078125 -30.63671875Q317.9921875 -31.5146484375 318.8701171875 -31.0L318.900390625 -30.9697265625Q323.3505859375 -28.7294921875 324.228515625 -25.490234375Q324.2890625 -25.1572265625 324.53125 -25.0966796875Q324.7734375 -25.0361328125 325.015625 -25.2177734375Q326.6806640625 -26.6103515625 328.4365234375 -28.154296875Q330.1923828125 -29.6982421875 330.828125 -31.0Q331.1611328125 -31.787109375 331.91796875 -30.9697265625Q333.734375 -29.0625 335.02099609375 -27.9423828125Q336.3076171875 -26.822265625 339.3955078125 -26.27734375Q339.9404296875 -26.15625 339.95556640625 -25.80810546875Q339.970703125 -25.4599609375 339.5771484375 -25.3388671875Q338.7900390625 -25.0361328125 338.1845703125 -24.29443359375Q337.5791015625 -23.552734375 337.5791015625 -21.8271484375V-9.021484375Q337.5791015625 -5.93359375 338.7294921875 -5.2373046875Q340.0615234375 -4.419921875 340.87890625 -5.9033203125Q341.2119140625 -6.478515625 341.65087890625 -6.16064453125Q342.08984375 -5.8427734375 341.6357421875 -5.1162109375Q340.7275390625 -3.693359375 339.92529296875 -2.25537109375Q339.123046875 -0.8173828125 338.3056640625 0.60546875Q337.7607421875 1.453125 336.943359375 0.9990234375Q331.43359375 -1.6650390625 331.43359375 -6.90234375L331.4638671875 -22.40234375Q331.4638671875 -23.310546875 331.009765625 -23.5830078125H330.9794921875V-23.6435546875L328.40625 -25.7626953125Q328.0732421875 -26.0048828125 327.7099609375 -25.79296875L324.5615234375 -23.3408203125Q324.349609375 -23.189453125 324.349609375 -22.9775390625Z M359.6787109375 -4.2685546875Q358.134765625 -3.087890625 356.2880859375 -1.68017578125Q354.44140625 -0.2724609375 352.8671875 0.908203125Q352.322265625 1.33203125 352.00439453125 1.271484375Q351.6865234375 1.2109375 351.7470703125 0.7265625Q351.7470703125 0.0908203125 349.8701171875 -1.6953125Q344.935546875 -6.3271484375 345.1171875 -13.744140625Q345.298828125 -20.1015625 351.0205078125 -24.4912109375Q352.7763671875 -25.8232421875 354.30517578125 -27.306640625Q355.833984375 -28.7900390625 357.0146484375 -30.9091796875Q357.4990234375 -31.84765625 358.3466796875 -30.9697265625Q362.9482421875 -25.7626953125 367.5498046875 -24.82421875Q369.0029296875 -24.5517578125 367.8525390625 -23.673828125Q366.4296875 -22.64453125 366.30859375 -21.130859375V-21.0703125L366.3994140625 -7.2353515625Q366.3994140625 -5.8427734375 367.41357421875 -5.328125Q368.427734375 -4.8134765625 369.6083984375 -6.115234375Q370.0625 -6.6298828125 370.47119140625 -6.37255859375Q370.8798828125 -6.115234375 370.486328125 -5.44921875Q369.396484375 -3.814453125 368.38232421875 -2.240234375Q367.3681640625 -0.666015625 366.671875 1.029296875L366.6416015625 1.0595703125Q366.2177734375 1.755859375 365.6123046875 1.0595703125Q365.279296875 0.6962890625 364.8251953125 0.5751953125Q361.3740234375 -0.181640625 360.4658203125 -3.99609375Q360.4052734375 -4.177734375 360.1630859375 -4.359375Q359.890625 -4.3896484375 359.6787109375 -4.2685546875ZM360.01171875 -22.099609375Q358.134765625 -22.6142578125 355.6220703125 -25.005859375Q354.4111328125 -26.458984375 353.6845703125 -25.2783203125Q350.4755859375 -20.4951171875 351.171875 -14.712890625Q352.140625 -6.4482421875 356.984375 -4.5107421875Q357.0146484375 -4.5107421875 357.044921875 -4.48046875Q358.2861328125 -4.0869140625 360.0419921875 -5.9638671875Q360.1630859375 -6.1455078125 360.1630859375 -6.296875Q360.1328125 -6.7509765625 360.1328125 -7.7197265625L360.4052734375 -21.615234375Q360.4052734375 -21.978515625 360.01171875 -22.099609375Z M432.0625 -40.80859375Q432.7587890625 -41.65625 433.47021484375 -41.09619140625Q434.181640625 -40.5361328125 433.3642578125 -39.7490234375Q431.0634765625 -37.5693359375 429.53466796875 -36.16162109375Q428.005859375 -34.75390625 426.7041015625 -34.02734375Q424.3427734375 -32.6650390625 422.08740234375 -33.22509765625Q419.83203125 -33.78515625 415.71484375 -35.8740234375Q411.416015625 -38.0537109375 407.904296875 -38.22021484375Q404.392578125 -38.38671875 401.3349609375 -35.4501953125Q398.337890625 -32.57421875 397.44482421875 -29.68310546875Q396.5517578125 -26.7919921875 396.642578125 -23.7041015625Q396.8544921875 -16.4384765625 403.10595703125 -11.54931640625Q409.357421875 -6.66015625 418.560546875 -6.90234375Q425.0087890625 -7.0234375 429.6708984375 -9.80859375Q434.3330078125 -12.59375 433.576171875 -18.1337890625Q432.9404296875 -22.5234375 429.03515625 -22.81103515625Q425.1298828125 -23.0986328125 420.376953125 -20.0712890625Q414.140625 -16.10546875 411.3251953125 -16.5595703125Q408.509765625 -17.013671875 403.5146484375 -23.8857421875Q402.9091796875 -24.6728515625 403.484375 -25.005859375Q404.0595703125 -25.3388671875 404.6044921875 -24.521484375Q406.4208984375 -21.8271484375 409.28173828125 -22.90185546875Q412.142578125 -23.9765625 415.59375 -25.974609375Q417.9248046875 -27.2763671875 419.9833984375 -28.35107421875Q422.0419921875 -29.42578125 425.220703125 -28.6689453125Q428.248046875 -27.912109375 431.13916015625 -25.4296875Q434.0302734375 -22.947265625 434.9384765625 -19.1328125Q435.6953125 -15.802734375 434.8173828125 -13.078125Q433.939453125 -10.353515625 432.486328125 -8.173828125Q429.7919921875 -4.0869140625 425.23583984375 -1.6953125Q420.6796875 0.6962890625 414.8369140625 0.6962890625Q406.208984375 0.6962890625 398.9736328125 -5.0859375Q391.73828125 -10.8681640625 391.919921875 -21.0703125Q392.162109375 -35.5107421875 413.53515625 -44.0478515625Q414.564453125 -44.4716796875 415.6845703125 -43.9267578125Q425.0693359375 -39.294921875 428.05126953125 -39.3857421875Q431.033203125 -39.4765625 432.0625 -40.80859375Z M438.904296875 -39.8095703125Q438.5107421875 -40.384765625 438.96484375 -40.70263671875Q439.4189453125 -41.0205078125 439.873046875 -40.4755859375Q441.205078125 -38.810546875 442.0224609375 -36.9033203125Q442.11328125 -36.6005859375 442.4462890625 -36.6005859375Q442.71875 -36.5400390625 442.9306640625 -36.8427734375Q444.6865234375 -39.9912109375 448.45556640625 -41.70166015625Q452.224609375 -43.412109375 456.099609375 -43.0791015625Q456.88671875 -43.048828125 456.88671875 -42.443359375Q456.88671875 -41.837890625 456.1298828125 -41.8984375Q452.951171875 -42.1103515625 450.58984375 -40.4453125Q448.228515625 -38.7802734375 448.2587890625 -34.02734375L448.3193359375 -27.24609375Q448.3193359375 -26.943359375 448.5615234375 -26.80712890625Q448.8037109375 -26.6708984375 449.0458984375 -26.822265625Q450.7109375 -27.73046875 452.39111328125 -28.8203125Q454.0712890625 -29.91015625 455.494140625 -31.2724609375Q456.6142578125 -32.392578125 456.765625 -30.87890625Q456.88671875 -29.7587890625 457.7041015625 -28.880859375Q458.521484375 -28.0029296875 459.2177734375 -27.1552734375Q463.3046875 -21.9482421875 463.42578125 -15.8935546875Q463.6376953125 -6.9931640625 457.1591796875 -0.16650390625Q450.6806640625 6.66015625 445.3828125 10.2626953125Q444.65625 10.77734375 444.30810546875 10.42919921875Q443.9599609375 10.0810546875 444.5048828125 9.626953125Q448.7734375 5.8427734375 453.11767578125 1.3623046875Q457.4619140625 -3.1181640625 457.068359375 -12.8359375Q456.88671875 -16.650390625 455.90283203125 -20.02587890625Q454.9189453125 -23.4013671875 452.3154296875 -25.6416015625Q450.9833984375 -26.76171875 448.6220703125 -25.611328125Q448.349609375 -25.5205078125 448.349609375 -25.1572265625L448.470703125 -6.8720703125Q448.470703125 -4.419921875 450.4384765625 -4.84375Q450.8623046875 -4.96484375 451.1953125 -5.2978515625Q451.5283203125 -5.630859375 451.93701171875 -5.88818359375Q452.345703125 -6.1455078125 452.6787109375 -5.8427734375Q453.01171875 -5.5400390625 452.6787109375 -5.20703125Q451.1953125 -3.572265625 449.681640625 -2.1796875Q448.16796875 -0.787109375 447.3505859375 0.8779296875Q446.9873046875 1.6044921875 446.2607421875 0.8779296875Q443.56640625 -2.0283203125 440.3876953125 -3.4814453125Q439.3583984375 -4.0263671875 440.236328125 -4.48046875Q442.173828125 -5.146484375 442.1435546875 -8.4765625L442.0830078125 -28.69921875Q442.052734375 -32.7861328125 441.15966796875 -35.3896484375Q440.2666015625 -37.9931640625 438.904296875 -39.8095703125Z M483.8603515625 -7.4775390625 483.890625 -20.1015625Q483.890625 -25.1875 482.0439453125 -25.732421875Q481.83203125 -25.8837890625 481.83203125 -26.11083984375Q481.83203125 -26.337890625 482.0439453125 -26.51953125Q484.73828125 -28.45703125 486.494140625 -31.96875Q486.615234375 -32.2412109375 486.91796875 -32.2412109375Q487.220703125 -32.2412109375 487.3720703125 -31.96875Q488.9765625 -28.4873046875 491.9736328125 -26.5498046875Q492.185546875 -26.3681640625 492.185546875 -26.11083984375Q492.185546875 -25.853515625 491.943359375 -25.732421875Q489.9453125 -25.1572265625 490.005859375 -20.1015625V-9.4453125Q490.005859375 -6.3271484375 491.15625 -5.630859375Q492.427734375 -4.783203125 493.3056640625 -6.296875Q493.638671875 -6.8720703125 494.07763671875 -6.55419921875Q494.5166015625 -6.236328125 494.0625 -5.509765625Q493.154296875 -4.1171875 492.35205078125 -2.6640625Q491.5498046875 -1.2109375 490.732421875 0.181640625Q490.2177734375 1.0595703125 489.3095703125 0.5146484375Q484.798828125 -1.634765625 484.01171875 -4.9345703125Q483.951171875 -5.1767578125 483.6484375 -5.267578125Q483.345703125 -5.3583984375 483.224609375 -5.1767578125Q481.4990234375 -3.7841796875 479.7734375 -2.25537109375Q478.0478515625 -0.7265625 477.412109375 0.544921875Q476.8974609375 1.271484375 476.2919921875 0.5146484375Q474.626953125 -1.4228515625 473.03759765625 -2.4521484375Q471.4482421875 -3.4814453125 468.814453125 -4.1171875Q468.2392578125 -4.3291015625 468.26953125 -4.6318359375Q468.2998046875 -4.9345703125 468.6630859375 -5.0859375Q469.419921875 -5.3583984375 470.04052734375 -6.10009765625Q470.6611328125 -6.841796875 470.6611328125 -8.5673828125V-21.373046875Q470.6611328125 -24.4609375 469.5107421875 -25.1572265625Q468.1484375 -25.974609375 467.3310546875 -24.4912109375Q466.998046875 -23.916015625 466.57421875 -24.2490234375Q466.150390625 -24.58203125 466.6044921875 -25.30859375Q467.482421875 -26.6708984375 468.28466796875 -28.1240234375Q469.0869140625 -29.5771484375 469.9345703125 -31.0302734375Q470.44921875 -31.9384765625 471.296875 -31.36328125H471.3271484375Q476.806640625 -28.4873046875 476.806640625 -23.4921875L476.74609375 -7.9921875Q476.74609375 -7.1142578125 477.2001953125 -6.8115234375L479.8037109375 -4.662109375Q480.1064453125 -4.3896484375 480.5 -4.6015625Q482.9521484375 -6.5390625 483.6787109375 -7.083984375Q483.8603515625 -7.205078125 483.8603515625 -7.4775390625Z M497.2109375 -25.7626953125Q497.271484375 -26.1865234375 497.8466796875 -26.3076171875Q499.693359375 -26.76171875 500.43505859375 -27.86669921875Q501.1767578125 -28.9716796875 501.0859375 -31.7265625Q500.7529296875 -34.6328125 499.89013671875 -36.4794921875Q499.02734375 -38.326171875 497.6953125 -39.6884765625Q497.1806640625 -40.203125 497.6044921875 -40.56640625Q498.0283203125 -40.9296875 498.603515625 -40.3544921875Q499.2998046875 -39.5068359375 500.04150390625 -38.5380859375Q500.783203125 -37.5693359375 501.2978515625 -36.5400390625Q501.44921875 -36.2373046875 501.73681640625 -36.2373046875Q502.0244140625 -36.2373046875 502.17578125 -36.4794921875Q503.9921875 -39.5068359375 507.15576171875 -41.36865234375Q510.3193359375 -43.23046875 514.0126953125 -43.109375Q514.6484375 -43.0791015625 514.708984375 -42.51904296875Q514.76953125 -41.958984375 514.0126953125 -41.958984375Q511.015625 -41.958984375 509.21435546875 -40.2333984375Q507.4130859375 -38.5078125 507.4130859375 -33.603515625Q507.4130859375 -33.2099609375 507.79150390625 -33.10400390625Q508.169921875 -32.998046875 508.3818359375 -33.3916015625Q510.228515625 -37.41796875 513.982421875 -38.4775390625Q514.6181640625 -38.5078125 514.6181640625 -37.9931640625V-32.634765625Q514.6484375 -31.9990234375 514.0732421875 -32.150390625Q510.7734375 -32.57421875 508.3515625 -30.2431640625Q507.8974609375 -29.607421875 507.9580078125 -28.94140625Q508.0185546875 -28.275390625 508.7451171875 -28.275390625H513.9521484375Q514.4365234375 -28.275390625 514.4365234375 -27.791015625V-25.853515625Q514.4365234375 -25.3388671875 513.9521484375 -25.3388671875H507.8369140625Q507.4130859375 -25.3388671875 507.4130859375 -24.7939453125L507.3828125 -7.7197265625Q507.3828125 -6.7509765625 507.8369140625 -6.478515625L510.0166015625 -5.2373046875Q510.712890625 -4.904296875 512.10546875 -6.6904296875Q512.408203125 -7.0537109375 512.83203125 -6.7509765625Q513.255859375 -6.4482421875 512.892578125 -6.0849609375Q509.7138671875 -2.54296875 508.0185546875 0.8779296875Q507.6552734375 1.513671875 506.9287109375 0.8779296875Q505.384765625 -1.150390625 503.94677734375 -2.19482421875Q502.5087890625 -3.2392578125 499.451171875 -3.814453125Q498.966796875 -3.875 498.95166015625 -4.25341796875Q498.9365234375 -4.6318359375 499.26953125 -4.783203125Q500.0263671875 -5.0556640625 500.64697265625 -5.79736328125Q501.267578125 -6.5390625 501.267578125 -8.2646484375L501.2373046875 -24.7333984375Q501.2373046875 -25.3388671875 500.6318359375 -25.3388671875H497.876953125Q497.1806640625 -25.3388671875 497.2109375 -25.7626953125Z M517.67578125 -39.779296875Q517.2822265625 -40.203125 517.66064453125 -40.5966796875Q518.0390625 -40.990234375 518.6142578125 -40.4453125Q519.310546875 -39.59765625 520.05224609375 -38.62890625Q520.7939453125 -37.66015625 521.30859375 -36.630859375Q521.4599609375 -36.328125 521.74755859375 -36.328125Q522.03515625 -36.328125 522.1865234375 -36.5703125Q523.97265625 -39.59765625 527.1513671875 -41.45947265625Q530.330078125 -43.3212890625 534.0234375 -43.2001953125Q534.7197265625 -43.169921875 534.75 -42.60986328125Q534.7802734375 -42.0498046875 534.0234375 -42.0498046875Q531.0263671875 -42.0498046875 529.22509765625 -40.32421875Q527.423828125 -38.5986328125 527.423828125 -34.02734375L527.3935546875 -7.810546875Q527.3935546875 -6.841796875 527.84765625 -6.5693359375L530.02734375 -5.328125Q530.7841796875 -5.0556640625 532.1162109375 -6.78125Q532.44921875 -7.2353515625 532.93359375 -6.97802734375Q533.41796875 -6.720703125 532.9033203125 -6.17578125Q529.724609375 -2.6337890625 528.029296875 0.787109375Q527.666015625 1.4228515625 526.939453125 0.787109375Q525.4560546875 -1.1201171875 523.8818359375 -2.22509765625Q522.3076171875 -3.330078125 519.4619140625 -3.9052734375Q518.9775390625 -3.9658203125 518.96240234375 -4.34423828125Q518.947265625 -4.72265625 519.2802734375 -4.8740234375Q520.037109375 -5.146484375 520.65771484375 -5.88818359375Q521.2783203125 -6.6298828125 521.2783203125 -8.35546875L521.248046875 -28.69921875Q521.248046875 -33.05859375 520.3095703125 -35.5712890625Q519.37109375 -38.083984375 517.67578125 -39.779296875Z M549.1904296875 -4.2685546875Q547.646484375 -3.087890625 545.7998046875 -1.68017578125Q543.953125 -0.2724609375 542.37890625 0.908203125Q541.833984375 1.33203125 541.51611328125 1.271484375Q541.1982421875 1.2109375 541.2587890625 0.7265625Q541.2587890625 0.0908203125 539.3818359375 -1.6953125Q534.447265625 -6.3271484375 534.62890625 -13.744140625Q534.810546875 -20.1015625 540.5322265625 -24.4912109375Q542.2880859375 -25.8232421875 543.81689453125 -27.306640625Q545.345703125 -28.7900390625 546.5263671875 -30.9091796875Q547.0107421875 -31.84765625 547.8583984375 -30.9697265625Q552.4599609375 -25.7626953125 557.0615234375 -24.82421875Q558.5146484375 -24.5517578125 557.3642578125 -23.673828125Q555.94140625 -22.64453125 555.8203125 -21.130859375V-21.0703125L555.9111328125 -7.2353515625Q555.9111328125 -5.8427734375 556.92529296875 -5.328125Q557.939453125 -4.8134765625 559.1201171875 -6.115234375Q559.57421875 -6.6298828125 559.98291015625 -6.37255859375Q560.3916015625 -6.115234375 559.998046875 -5.44921875Q558.908203125 -3.814453125 557.89404296875 -2.240234375Q556.8798828125 -0.666015625 556.18359375 1.029296875L556.1533203125 1.0595703125Q555.7294921875 1.755859375 555.1240234375 1.0595703125Q554.791015625 0.6962890625 554.3369140625 0.5751953125Q550.8857421875 -0.181640625 549.9775390625 -3.99609375Q549.9169921875 -4.177734375 549.6748046875 -4.359375Q549.40234375 -4.3896484375 549.1904296875 -4.2685546875ZM549.5234375 -22.099609375Q547.646484375 -22.6142578125 545.1337890625 -25.005859375Q543.9228515625 -26.458984375 543.1962890625 -25.2783203125Q539.9873046875 -20.4951171875 540.68359375 -14.712890625Q541.65234375 -6.4482421875 546.49609375 -4.5107421875Q546.5263671875 -4.5107421875 546.556640625 -4.48046875Q547.7978515625 -4.0869140625 549.5537109375 -5.9638671875Q549.6748046875 -6.1455078125 549.6748046875 -6.296875Q549.64453125 -6.7509765625 549.64453125 -7.7197265625L549.9169921875 -21.615234375Q549.9169921875 -21.978515625 549.5234375 -22.099609375Z"/>
  </g>

  <!-- animated cycling tagline -->
  <g font-family="Menlo, Consolas, monospace" font-size="21" fill="#9ee62c">
    <text x="112" y="205">
      <tspan fill="#6B8F3A">&gt; </tspan>Full Stack Developer | MERN &amp; Next.js
      <animate attributeName="opacity" dur="16s" repeatCount="indefinite"
        keyTimes="0;0.01875;0.2125;0.23125;1" values="0;1;1;0;0"/>
    </text>
    <text x="112" y="205">
      <tspan fill="#6B8F3A">&gt; </tspan>Building AI-Powered Applications with FastAPI
      <animate attributeName="opacity" dur="16s" repeatCount="indefinite"
        keyTimes="0;0.25;0.26875;0.4625;0.48125;1" values="0;0;1;1;0;0"/>
    </text>
    <text x="112" y="205">
      <tspan fill="#6B8F3A">&gt; </tspan>Real-Time Voice AI &#183; RAG &#183; Vector Search
      <animate attributeName="opacity" dur="16s" repeatCount="indefinite"
        keyTimes="0;0.5;0.51875;0.7125;0.73125;1" values="0;0;1;1;0;0"/>
    </text>
    <text x="112" y="205">
      <tspan fill="#6B8F3A">&gt; </tspan>Shipping Real, Deployed Products
      <animate attributeName="opacity" dur="16s" repeatCount="indefinite"
        keyTimes="0;0.75;0.76875;0.9625;0.98125;1" values="0;0;1;1;0;0"/>
    </text>
  </g>

  <!-- tag pills -->
  <g font-family="Menlo, Consolas, monospace" font-size="13" fill="#9ee62c">
    <rect x="112" y="228" width="72" height="26" rx="13" fill="#9ee62c" fill-opacity="0.1" stroke="#9ee62c" stroke-opacity="0.4"/>
    <text x="127" y="245">MERN</text>

    <rect x="196" y="228" width="82" height="26" rx="13" fill="#9ee62c" fill-opacity="0.1" stroke="#9ee62c" stroke-opacity="0.4"/>
    <text x="211" y="245">Next.js</text>

    <rect x="290" y="228" width="82" height="26" rx="13" fill="#9ee62c" fill-opacity="0.1" stroke="#9ee62c" stroke-opacity="0.4"/>
    <text x="305" y="245">FastAPI</text>

    <rect x="384" y="228" width="70" height="26" rx="13" fill="#9ee62c" fill-opacity="0.1" stroke="#9ee62c" stroke-opacity="0.4"/>
    <text x="399" y="245">AI/RAG</text>
  </g>
</svg>
